<svg width="14" height="14" viewBox="0 0 14 14" fill="none" xmlns="http://www.w3.org/2000/svg">
<path d="M7.546 5.49975C7.546 6.33013 8.276 6.9995 9.181 6.9995C10.087 6.9995 10.812 6.33013 10.812 5.49975C10.812 4.66938 10.087 4 9.181 4C8.276 4 7.546 4.66938 7.546 5.49975ZM3.182 5.49975C3.182 6.33013 3.913 6.9995 4.818 6.9995C5.724 6.9995 6.449 6.33013 6.449 5.49975C6.449 4.66938 5.724 4 4.818 4C3.913 4 3.182 4.66938 3.182 5.49975ZM8.652 8.02413C8.652 8.02413 9.728 9.00937 9.728 9.74962V10.5625C9.728 10.804 9.951 11 10.227 11H12.5C12.776 11 13 10.804 13 10.5625V9.74962C13 8.585 10.453 8.0005 9.181 8.0005C9.023 8.0005 8.652 8.02413 8.652 8.02413ZM1 9.74962V10.5625C1 10.804 1.224 11 1.5 11H8.137C8.412 11 8.637 10.804 8.637 10.5625V9.74962C8.637 8.585 6.089 8.0005 4.818 8.0005C3.546 8.0005 1 8.585 1 9.74962Z" fill="#999696"/>
</svg>
